<svg width="45" height="47" viewBox="0 0 45 47" fill="none" xmlns="http://www.w3.org/2000/svg">
															<path d="M1.01802 23.2949C1.00722 23.0114 1 22.7246 1 22.4341C1 10.5959 10.5948 1 22.4313 1C34.2644 1 43.8592 10.5961 43.8592 22.4341C43.8592 27.8438 41.8542 32.7835 38.5472 36.5538C35.2617 40.3025 30.6921 42.8961 25.5233 43.6422" stroke="#A6D812" stroke-width="1.5" stroke-miterlimit="10" stroke-linecap="round" stroke-linejoin="round"></path>
															<path d="M25.5233 43.6422C25.5262 43.6393 26.7071 40.7293 27.0862 39.7927C27.1654 39.5971 27.2506 39.4079 27.3395 39.2167C28.3968 36.943 29.2326 33.9523 29.7485 30.5199C30.1251 28.0267 30.3296 25.2968 30.3296 22.4341C30.3296 10.5959 26.793 1 22.4312 1C18.4069 1 15.0891 9.15405 14.5941 19.7005V19.7041" stroke="#A6D812" stroke-width="1.5" stroke-miterlimit="10" stroke-linecap="round" stroke-linejoin="round"></path>
															<path d="M6.3064 8.31665C10.236 12.7978 16.0052 15.6256 22.4315 15.6256C28.8578 15.6256 34.623 12.7978 38.5523 8.31665" stroke="#A6D812" stroke-width="1.5" stroke-miterlimit="10" stroke-linecap="round" stroke-linejoin="round"></path>
															<path d="M26.5562 29.6372C27.6538 29.8489 28.7191 30.1466 29.7485 30.5197C33.174 31.7644 36.194 33.8594 38.547 36.5535" stroke="#A6D812" stroke-width="1.5" stroke-miterlimit="10" stroke-linecap="round" stroke-linejoin="round"></path>
															<path d="M11.5199 46C17.2778 46 21.9456 41.3317 21.9456 35.573C21.9456 29.8143 17.2778 25.146 11.5199 25.146C5.76197 25.146 1.09424 29.8143 1.09424 35.573C1.09424 41.3317 5.76197 46 11.5199 46Z" fill="#A6D812" fill-opacity="0.2" stroke="#A6D812" stroke-width="1.5" stroke-miterlimit="10" stroke-linecap="round" stroke-linejoin="round"></path>
															<path d="M9.76149 39.6591H11.7752C12.8758 39.6591 13.768 38.7667 13.768 37.6658C13.768 36.5651 12.8758 35.6728 11.7752 35.6728H11.2645C10.1639 35.6728 9.27173 34.7804 9.27173 33.6795V33.4801C9.27173 32.3794 10.1639 31.4871 11.2645 31.4871H13.2782" stroke="#A6D812" stroke-width="1.5" stroke-miterlimit="10" stroke-linecap="round" stroke-linejoin="round"></path>
															<path d="M11.6136 31.487V29.4001" stroke="#A6D812" stroke-width="1.5" stroke-miterlimit="10" stroke-linecap="round" stroke-linejoin="round"></path>
															<path d="M11.6136 41.7458V39.6589" stroke="#A6D812" stroke-width="1.5" stroke-miterlimit="10" stroke-linecap="round" stroke-linejoin="round"></path>
														</svg>