<svg width="64" height="47" viewBox="0 0 64 47" fill="none" xmlns="http://www.w3.org/2000/svg">
															<path d="M32.3835 40.4819H1V1H49.9212V4.50353" stroke="#A6D812" stroke-width="1.5" stroke-miterlimit="10" stroke-linecap="round" stroke-linejoin="round"></path>
															<path d="M10.1356 27.4232H13.4296C15.2302 27.4232 16.6897 25.9636 16.6897 24.1628C16.6897 22.3621 15.2302 20.9024 13.4296 20.9024H12.5946C10.794 20.9024 9.33484 19.4427 9.33484 17.6419V17.3158C9.33484 15.5154 10.7943 14.0557 12.5946 14.0557H15.8885" stroke="#A6D812" stroke-width="1.5" stroke-miterlimit="10" stroke-linecap="round" stroke-linejoin="round"></path>
															<path d="M13.1654 14.0561V10.6423" stroke="#A6D812" stroke-width="1.5" stroke-miterlimit="10" stroke-linecap="round" stroke-linejoin="round"></path>
															<path d="M13.1654 30.8371V27.4233" stroke="#A6D812" stroke-width="1.5" stroke-miterlimit="10" stroke-linecap="round" stroke-linejoin="round"></path>
															<path d="M25.9368 12.4575H41.5913" stroke="#A6D812" stroke-width="1.5" stroke-miterlimit="10" stroke-linecap="round" stroke-linejoin="round"></path>
															<path d="M25.9368 20.7397H39.6791" stroke="#A6D812" stroke-width="1.5" stroke-miterlimit="10" stroke-linecap="round" stroke-linejoin="round"></path>
															<path d="M25.9368 29.0217H34.6299" stroke="#A6D812" stroke-width="1.5" stroke-miterlimit="10" stroke-linecap="round" stroke-linejoin="round"></path>
															<path d="M48.8595 41.1474L41.0652 46L40.9478 36.8184L54.2939 12.4206C55.1021 10.9433 56.6769 10.2488 57.8114 10.8697L61.6145 12.9504C62.749 13.5713 63.0139 15.2722 62.2057 16.7494L48.8595 41.1474Z" fill="#A6D812" fill-opacity="0.2" stroke="#A6D812" stroke-width="1.5" stroke-miterlimit="10" stroke-linecap="round" stroke-linejoin="round"></path>
															<path d="M52.2179 16.2153L60.1297 20.5444" stroke="#A6D812" stroke-width="1.5" stroke-miterlimit="10" stroke-linecap="round" stroke-linejoin="round"></path>
														</svg>