<svg class="absolute rotate-[-2deg] top-4 left-2" width="70" height="80" viewBox="0 0 73 99" fill="none" xmlns="http://www.w3.org/2000/svg">
														<path d="M72.9496 1.40506C72.8656 0.632279 72.1708 0.0726486 71.3996 0.170049C60.5409 1.54147 50.0676 5.10012 40.6147 10.6362C30.7568 16.4095 22.2316 24.2028 15.599 33.5043C8.96632 42.8058 4.37625 53.4052 2.13016 64.6063C-0.0236346 75.3472 0.0246055 86.4084 2.26627 97.1214C2.42548 97.8822 3.18097 98.3568 3.93894 98.1843V98.1843C4.6969 98.0119 5.17028 97.2579 5.01155 96.4969C2.85765 86.1712 2.81443 75.5113 4.89017 65.1597C7.0582 54.3479 11.4888 44.1169 17.8909 35.1386C24.2931 26.1604 32.522 18.6379 42.0373 13.0653C51.1476 7.7298 61.2398 4.29719 71.7038 2.96896C72.475 2.87107 73.0336 2.17783 72.9496 1.40506V1.40506Z" fill="var(--color-primary)"></path>
													</svg>