<svg width="57" height="46" viewBox="0 0 57 46" fill="none" xmlns="http://www.w3.org/2000/svg">
															<path d="M6.26636 44.9999V23.0215" stroke="#A6D812" stroke-width="1.5" stroke-miterlimit="10" stroke-linecap="round" stroke-linejoin="round"></path>
															<path d="M11.4547 45V33.6467" stroke="#A6D812" stroke-width="1.5" stroke-miterlimit="10" stroke-linecap="round" stroke-linejoin="round"></path>
															<path d="M6.26502 31.6562H3.83809C2.27075 31.6562 1 30.3856 1 28.8177V19.0457C1 17.4782 2.27048 16.2073 3.83809 16.2073H19.0723H29.0853C30.9142 16.2073 32.3968 17.6901 32.3968 19.5191C32.3968 21.3482 30.9142 22.831 29.0853 22.831H16.6429V44.9994" fill="#A6D812" fill-opacity="0.2"></path>
															<path d="M6.26502 31.6562H3.83809C2.27075 31.6562 1 30.3856 1 28.8177V19.0457C1 17.4782 2.27048 16.2073 3.83809 16.2073H19.0723H29.0853C30.9142 16.2073 32.3968 17.69 32.3968 19.5191C32.3968 21.3482 30.9142 22.831 29.0853 22.831H16.6429V44.9994" stroke="#A6D812" stroke-width="1.5" stroke-miterlimit="10" stroke-linecap="round" stroke-linejoin="round"></path>
															<path d="M16.5962 6.78437C17.0553 3.95557 15.1345 1.29021 12.3061 0.831116C9.47762 0.372019 6.81261 2.29304 6.35357 5.12184C5.89453 7.95064 7.81529 10.6161 10.6437 11.0752C13.4722 11.5343 16.1372 9.61317 16.5962 6.78437Z" fill="#A6D812" fill-opacity="0.2" stroke="#A6D812" stroke-width="1.5" stroke-miterlimit="10" stroke-linecap="round" stroke-linejoin="round"></path>
															<path d="M26.3567 2.47607H55.8211V28.9153H34.3405" stroke="#A6D812" stroke-width="1.5" stroke-miterlimit="10" stroke-linecap="round" stroke-linejoin="round"></path>
															<path d="M48.9777 10.002V20.4044" stroke="#A6D812" stroke-width="1.5" stroke-miterlimit="10" stroke-linecap="round" stroke-linejoin="round"></path>
															<path d="M43.6529 14.2729V20.4044" stroke="#A6D812" stroke-width="1.5" stroke-miterlimit="10" stroke-linecap="round" stroke-linejoin="round"></path>
															<path d="M38.38 16.6255V20.4042" stroke="#A6D812" stroke-width="1.5" stroke-miterlimit="10" stroke-linecap="round" stroke-linejoin="round"></path>
														</svg>