<svg width="20" height="20" viewBox="0 0 20 20" fill="none" xmlns="http://www.w3.org/2000/svg">
												<g clip-path="url(#clip0_100_7)">
												<path d="M7.93897 12.051C7.83464 12.163 7.66731 12.1887 7.53364 12.115L1.46431 8.75571C1.37297 8.70505 1.28464 8.68371 1.20264 8.68371C1.03964 8.68371 0.90164 8.76771 0.810974 8.87105C0.674307 9.02671 0.58464 9.30305 0.78164 9.56971L7.72997 18.9714C7.91197 19.2174 8.19131 19.349 8.48997 19.3317C8.79231 19.3144 9.05431 19.152 9.20797 18.8857L19.2493 1.50471C19.4333 1.18638 19.2843 0.915048 19.1013 0.779382C18.9186 0.644382 18.6383 0.590715 18.4 0.845715L7.93897 12.051Z" fill="#B3E719"></path>
												</g>
												<defs>
												<clipPath id="clip0_100_7">
												<rect width="20" height="20" fill="white"></rect>
												</clipPath>
												</defs>
												</svg>